<?xml version="1.0" standalone="no"?>
<!DOCTYPE svg PUBLIC "-//W3C//DTD SVG 20010904//EN"
 "http://www.w3.org/TR/2001/REC-SVG-20010904/DTD/svg10.dtd">
<svg version="1.0" xmlns="http://www.w3.org/2000/svg"
 width="309.000000pt" height="309.000000pt" viewBox="0 0 309.000000 309.000000"
 preserveAspectRatio="xMidYMid meet">
<metadata>
Created by potrace 1.11, written by Peter Selinger 2001-2013
</metadata>
<g transform="translate(0.000000,309.000000) scale(0.100000,-0.100000)"
fill="#000000" stroke="none">
<path d="M0 1545 l0 -1545 1545 0 1545 0 -1 745 c0 572 -3 745 -12 745 -8 0
-8 3 2 9 9 6 10 10 2 16 -9 5 -9 10 -1 20 14 17 10 117 -4 127 -8 6 -8 8 0 8
16 0 18 168 2 188 -9 11 -10 14 -1 9 10 -6 13 126 13 608 l0 615 -1545 0
-1545 0 0 -1545z m2135 1296 c3 -5 2 -12 -3 -15 -5 -3 -9 1 -9 9 0 17 3 19 12
6z m-815 -11 c0 -5 -5 -10 -11 -10 -5 0 -7 5 -4 10 3 6 8 10 11 10 2 0 4 -4 4
-10z m94 -14 c-8 -20 -24 -21 -24 0 0 8 5 12 10 9 6 -3 10 -1 10 6 0 7 2 10 5
7 3 -3 3 -13 -1 -22z m-44 -6 c0 7 3 11 6 7 4 -3 -2 -17 -13 -30 l-19 -24 -12
25 c-9 20 -9 23 0 14 21 -21 32 -13 12 11 l-19 22 23 -19 c15 -13 22 -15 22
-6z m500 6 c0 -2 -7 -7 -16 -10 -8 -3 -12 -2 -9 4 6 10 25 14 25 6z m-710 -15
c0 -5 -7 -12 -16 -15 -14 -5 -15 -4 -4 9 14 17 20 19 20 6z m90 -27 c11 -12
11 -15 -1 -12 -8 2 -13 -4 -13 -14 1 -14 -2 -15 -17 -8 -10 6 -21 16 -25 23
-6 9 -4 9 8 -1 13 -10 16 -9 21 8 6 24 11 25 27 4z m265 -12 c2 -12 -1 -25 -7
-28 -7 -4 -8 -2 -4 4 4 7 1 12 -6 13 -9 0 -10 2 -1 5 7 3 9 13 6 22 -3 9 -3
14 1 11 4 -4 8 -16 11 -27z m99 16 c-3 -5 -10 -6 -15 -3 -5 4 -9 -2 -9 -11 0
-10 -3 -15 -6 -11 -11 10 3 34 20 34 8 0 13 -4 10 -9z m191 -10 c4 0 11 6 16
13 4 8 11 10 15 6 9 -9 0 -18 -22 -21 -30 -5 -26 -23 5 -21 22 1 28 -2 23 -13
-4 -11 -1 -14 12 -9 10 4 15 3 11 -3 -3 -6 -13 -10 -21 -10 -11 0 -12 -4 -4
-19 14 -26 13 -34 -4 -28 -7 3 -18 1 -23 -4 -6 -6 -10 -4 -10 5 0 8 4 13 9 10
4 -3 8 0 8 5 0 6 -9 11 -21 11 -11 0 -17 -4 -14 -10 3 -5 1 -10 -4 -10 -6 0
-11 7 -11 16 0 21 -16 9 -23 -17 -4 -13 -1 -19 6 -16 15 6 16 -44 1 -60 -7 -7
-16 -8 -25 -2 -8 5 -9 9 -3 9 7 0 14 9 17 20 5 19 -7 28 -16 13 -2 -5 -2 -3
-1 4 2 7 -1 15 -6 18 -6 4 -10 14 -9 23 0 14 2 13 9 -3 8 -17 9 -18 11 -2 3
33 4 35 12 43 4 4 7 3 7 -2 0 -14 69 -12 74 3 7 18 -13 27 -30 12 -20 -17 -25
-8 -18 30 4 19 10 28 14 21 4 -6 11 -12 15 -12z m-322 -3 c-3 -9 -8 -14 -10
-11 -3 3 -2 9 2 15 9 16 15 13 8 -4z m177 4 c0 -6 9 -8 23 -4 21 7 21 7 3 -8
-16 -12 -22 -12 -33 -1 -16 15 -17 24 -3 24 6 0 10 -5 10 -11z m-272 -13 c-10
-7 -15 -16 -11 -20 4 -4 -1 -4 -11 0 -17 6 -16 8 5 20 31 17 39 17 17 0z m69
-8 c-3 -8 -6 -5 -6 6 -1 11 2 17 5 13 3 -3 4 -12 1 -19z m91 2 c-7 -10 -14
-18 -15 -16 -6 6 9 36 18 36 5 0 4 -9 -3 -20z m182 10 c0 -5 -2 -10 -4 -10 -3
0 -8 5 -11 10 -3 6 -1 10 4 10 6 0 11 -4 11 -10z m-390 -31 c0 -3 -7 -6 -15
-6 -17 0 -17 0 -9 22 5 13 8 14 15 3 5 -7 9 -16 9 -19z m90 0 c0 -5 -4 -9 -8
-9 -5 0 -9 7 -9 15 0 8 4 12 9 9 4 -3 8 -9 8 -15z m228 -21 c8 -10 12 -18 7
-18 -4 0 0 -11 9 -25 16 -24 16 -25 -6 -25 -19 0 -20 2 -8 10 14 9 7 14 -13
11 -4 -1 -3 8 3 19 10 19 6 24 -13 21 -5 -1 -6 3 -3 8 4 5 2 12 -4 16 -6 4 -7
11 -3 18 4 8 8 7 11 -3 3 -8 11 -23 20 -32z m-588 7 c0 -2 -7 -2 -15 1 -11 5
-13 2 -8 -12 6 -16 5 -16 -13 2 -23 22 -10 38 18 23 10 -5 18 -12 18 -14z
m418 13 c-2 -7 2 -12 9 -13 7 0 19 -9 27 -20 15 -19 15 -19 9 5 -3 14 -2 21 2
17 11 -9 16 -38 9 -49 -3 -5 -13 -3 -22 4 -9 7 -13 8 -10 3 9 -14 -6 -38 -25
-41 -12 -1 -11 6 6 34 19 32 19 35 4 29 -11 -4 -16 -3 -12 3 3 6 1 11 -4 11
-10 1 -18 3 -38 8 -8 2 25 19 40 20 4 1 6 -4 5 -11z m86 -20 c-3 -4 -3 -8 0
-8 2 0 12 -3 22 -7 11 -4 15 -3 10 5 -3 6 -2 13 2 16 5 3 9 -7 10 -22 0 -48 2
-53 14 -46 7 4 8 3 4 -5 -9 -14 -36 4 -36 24 0 7 -7 12 -17 11 -11 -1 -17 9
-19 34 -2 22 0 29 6 20 5 -8 6 -18 4 -22z m136 6 c0 -8 -4 -14 -9 -14 -11 0
-22 26 -14 34 9 9 23 -3 23 -20z m-710 6 c0 -5 -2 -10 -4 -10 -3 0 -8 5 -11
10 -3 6 -1 10 4 10 6 0 11 -4 11 -10z m290 -16 c0 -2 -9 0 -20 6 -11 6 -20 13
-20 16 0 2 9 0 20 -6 11 -6 20 -13 20 -16z m600 -6 c-11 -12 -20 -31 -21 -42
0 -12 -3 -15 -6 -8 -7 17 19 72 35 72 8 0 6 -8 -8 -22z m-495 2 c3 -5 -1 -10
-9 -10 -9 0 -16 5 -16 10 0 6 4 10 9 10 6 0 13 -4 16 -10z m37 -12 c-2 -10 -7
-18 -11 -19 -3 0 -17 -3 -30 -5 -14 -2 -22 -2 -19 2 3 3 14 7 25 8 10 2 17 10
15 18 -1 8 4 15 12 15 8 0 11 -7 8 -19z m-178 -5 c4 -9 2 -21 -3 -26 -6 -6 -9
-2 -8 9 2 14 -4 19 -20 18 -13 -1 -20 3 -17 7 9 15 42 10 48 -8z m661 7 c3 -5
1 -10 -4 -10 -6 0 -11 5 -11 10 0 6 2 10 4 10 3 0 8 -4 11 -10z m180 0 c3 -6
-1 -7 -9 -4 -18 7 -21 14 -7 14 6 0 13 -4 16 -10z m-1092 -15 c-3 -9 -8 -14
-10 -11 -3 3 -2 9 2 15 9 16 15 13 8 -4z m187 3 c0 -4 -4 -8 -10 -8 -5 0 -7
-8 -3 -17 5 -15 3 -14 -10 2 -12 14 -16 16 -17 6 0 -8 -3 -11 -6 -8 -10 9 13
34 31 34 8 0 15 -4 15 -9z m160 -42 c0 -6 -7 0 -16 12 -8 12 -20 19 -26 16 -7
-5 -8 -2 -4 5 6 9 13 8 27 -5 10 -9 19 -22 19 -28z m120 29 c-7 -9 -15 -13
-19 -10 -3 3 1 10 9 15 21 14 24 12 10 -5z m-408 -20 c2 3 5 -2 5 -10 0 -19 1
-20 -28 12 -17 20 -18 23 -3 10 11 -9 23 -15 26 -12z m521 12 c4 3 7 1 7 -5 0
-7 -6 -13 -12 -13 -7 -1 -23 -3 -35 -4 -14 -1 -23 3 -23 11 0 8 6 11 15 8 8
-4 15 -1 15 6 0 9 3 10 13 1 8 -6 17 -8 20 -4z m405 -12 c0 -14 -5 -25 -10
-25 -5 0 -6 -5 -3 -10 4 -6 1 -9 -6 -8 -6 2 -14 -3 -17 -11 -3 -9 0 -11 9 -6
8 5 11 5 7 0 -4 -4 -2 -15 4 -24 8 -9 3 -8 -10 3 -12 11 -20 26 -18 33 3 7 0
13 -7 13 -7 1 1 6 16 13 16 7 29 16 28 20 -2 15 -1 27 3 27 2 0 4 -11 4 -25z
m-186 -9 c6 4 9 1 7 -5 -8 -22 -24 -16 -26 9 -1 15 0 18 3 7 3 -9 10 -14 16
-11z m119 11 c-6 -8 -7 -17 -3 -22 4 -4 -4 -2 -18 6 l-25 13 25 7 c14 4 27 7
29 8 2 1 -2 -5 -8 -12z m141 1 c-15 -15 -52 -21 -52 -9 0 6 9 8 20 6 11 -2 22
0 25 6 4 5 9 9 13 9 3 0 1 -5 -6 -12z m-926 -27 c-4 -6 -18 -11 -31 -11 -19 0
-23 -4 -19 -17 5 -15 4 -16 -5 -3 -12 17 -5 26 24 32 11 2 19 11 17 19 -3 11
-1 11 8 2 7 -6 9 -16 6 -22z m103 -16 c15 -9 14 8 -1 23 -9 9 -9 12 0 12 7 0
17 -10 22 -22 5 -13 9 -18 10 -13 0 6 5 3 11 -5 8 -11 9 -8 5 15 -5 22 -4 26
4 15 8 -13 10 -13 10 3 0 9 4 17 9 17 11 0 9 -33 -2 -41 -14 -10 3 -35 25 -36
16 -2 18 1 9 10 -17 17 -13 33 7 33 10 0 19 -6 19 -12 0 -7 -7 -9 -15 -6 -13
5 -13 2 1 -18 17 -25 67 -39 67 -19 0 8 4 8 15 -1 8 -6 18 -9 23 -6 5 3 14 -6
21 -21 6 -14 14 -23 18 -20 3 4 0 13 -7 22 -10 13 -9 15 10 15 18 0 21 -4 17
-21 -3 -13 -1 -19 6 -16 17 5 15 40 -3 54 -17 14 -34 17 -26 5 3 -5 -1 -9 -10
-9 -10 0 -12 7 -8 20 5 16 3 19 -12 13 -11 -4 -23 -8 -29 -9 -5 -1 -15 -9 -22
-17 -6 -8 -15 -11 -20 -7 -4 5 2 17 15 27 20 17 21 19 5 23 -16 4 -16 5 -1 6
9 0 19 -3 23 -9 3 -6 15 -6 30 0 19 7 26 5 40 -16 16 -25 41 -24 31 2 -3 8 -1
14 5 14 7 0 9 -10 5 -23 -3 -13 1 -32 9 -44 12 -17 12 -22 2 -26 -6 -3 -2 -6
11 -6 13 -1 20 3 17 9 -6 9 44 64 52 57 8 -9 -10 -38 -21 -34 -7 3 -13 -6 -14
-19 -1 -13 2 -24 6 -25 4 0 15 -2 25 -4 15 -3 16 -1 5 13 -9 11 -10 14 -1 8 7
-4 21 -2 30 3 15 9 16 10 2 11 -9 0 -16 7 -16 15 0 8 4 12 8 9 4 -2 10 0 14 6
3 5 12 10 18 10 7 0 6 -4 -3 -10 -8 -5 -10 -10 -4 -10 5 0 15 -12 22 -27 10
-26 11 -26 6 -3 -4 21 -3 22 6 7 15 -24 3 -42 -18 -25 -12 10 -14 10 -8 1 4
-7 3 -13 -3 -13 -5 0 -11 6 -14 13 -2 6 -8 9 -12 5 -13 -12 6 -28 35 -28 16 0
30 7 34 16 4 9 13 14 21 10 9 -3 15 0 15 10 0 11 -6 13 -21 9 -14 -5 -19 -3
-15 3 4 6 -2 15 -11 21 -10 5 -14 13 -10 17 5 5 12 2 17 -5 4 -8 15 -11 23 -8
9 3 18 1 20 -6 3 -9 7 -9 19 1 9 7 23 9 33 6 13 -5 14 -9 3 -15 -18 -12 4 -12
36 1 20 7 24 6 20 -5 -3 -8 -9 -14 -12 -13 -4 0 -14 0 -22 -1 -13 -1 -13 -2 0
-11 8 -5 10 -10 4 -10 -6 0 -19 9 -29 20 -10 11 -14 20 -10 20 5 0 6 3 2 6 -7
8 -31 -16 -35 -35 -2 -8 3 -11 13 -8 8 4 15 3 15 -2 0 -17 50 -19 60 -2 7 12
9 13 10 2 0 -10 8 -7 26 10 25 22 26 23 15 2 -6 -12 -16 -23 -21 -25 -6 -2 -8
-11 -5 -19 8 -22 77 -33 90 -15 9 11 14 11 27 2 14 -10 15 -15 5 -26 -8 -9 -8
-11 0 -6 16 9 45 -4 39 -19 -3 -8 2 -11 15 -8 11 3 19 0 19 -8 0 -7 3 -9 7 -6
3 4 13 2 20 -5 9 -7 17 -8 21 -2 4 5 16 11 27 12 33 6 41 21 19 36 -10 8 -20
19 -20 25 -1 6 -2 13 -3 16 0 3 -11 1 -22 -6 -17 -8 -20 -8 -14 1 5 8 3 11 -6
8 -8 -3 -13 -11 -12 -17 2 -6 -4 -11 -12 -11 -8 0 -15 7 -15 15 0 8 3 14 8 14
18 -3 22 2 13 19 -6 12 -5 23 5 36 13 18 14 18 20 2 4 -11 1 -22 -7 -27 -12
-8 -12 -10 1 -19 8 -5 25 -8 38 -5 12 2 20 0 17 -4 -6 -11 30 -52 39 -44 4 4
4 -1 1 -12 -6 -19 -6 -19 8 -2 14 16 15 16 19 -7 4 -22 3 -23 -19 -15 -27 10
-30 2 -5 -17 16 -13 16 -13 -1 -14 -10 0 -15 -4 -12 -10 3 -5 -2 -11 -12 -11
-10 -1 -4 -4 12 -8 34 -8 58 -3 49 10 -3 5 4 9 15 9 12 0 21 -4 21 -10 0 -5
-4 -10 -10 -10 -5 0 -7 -7 -4 -15 8 -20 24 -19 24 1 0 9 5 12 12 8 8 -5 9 -2
5 9 -3 10 -3 17 2 17 5 0 11 -9 14 -21 3 -12 3 -18 0 -15 -3 3 -12 -2 -20 -10
-9 -9 -23 -12 -35 -8 -28 8 -19 -18 10 -31 12 -5 22 -14 22 -20 0 -5 5 -3 10
5 8 13 10 13 10 -1 0 -9 11 -22 25 -29 14 -7 25 -16 25 -19 0 -3 9 -17 20 -31
15 -20 18 -21 16 -7 -1 10 -9 23 -17 28 -8 5 -10 9 -6 9 4 0 2 6 -5 14 -7 8
-17 11 -22 8 -5 -3 -7 2 -3 11 4 12 1 17 -11 17 -13 0 -14 2 -3 9 18 11 -4 25
-27 17 -13 -5 -13 -3 2 9 22 17 61 21 51 5 -4 -6 -11 -7 -17 -4 -5 4 -3 -5 7
-19 20 -31 42 -40 49 -21 3 9 1 12 -4 9 -6 -3 -10 -1 -10 4 0 6 2 11 4 11 2 0
11 3 20 6 11 4 14 0 11 -16 -2 -12 -9 -28 -15 -35 -10 -12 -4 -45 7 -45 3 0
12 8 19 18 12 16 13 16 10 -2 -2 -11 -8 -22 -14 -24 -14 -4 -16 -52 -3 -52 6
0 13 5 17 12 4 7 3 8 -4 4 -7 -4 -12 -1 -12 7 0 8 7 17 15 21 11 4 15 -2 15
-25 0 -17 4 -28 9 -25 10 7 73 -39 65 -47 -3 -3 3 -3 15 0 12 3 21 12 21 20 0
8 -5 11 -12 7 -7 -4 -8 -3 -4 5 6 8 12 9 20 2 7 -6 16 -8 19 -4 4 3 15 -1 25
-10 10 -10 21 -14 25 -11 4 4 4 -4 2 -16 -5 -28 -15 -39 -15 -17 0 9 -4 17 -8
17 -11 0 -9 -47 2 -57 5 -5 6 -2 1 6 -6 11 -4 13 8 8 23 -9 36 19 27 59 -5 23
-4 32 3 27 7 -4 8 0 3 12 -5 15 -4 16 9 5 9 -7 12 -16 8 -19 -4 -3 -9 -17 -10
-31 -1 -14 0 -19 3 -12 3 6 10 12 16 12 7 0 6 -5 -1 -14 -8 -10 -8 -16 3 -25
11 -9 15 -8 20 5 3 9 4 20 1 25 -4 5 1 6 9 3 12 -5 12 -9 0 -32 -12 -24 -12
-27 6 -34 31 -11 23 -18 -12 -11 l-33 6 23 -25 c12 -13 19 -27 15 -31 -3 -4 2
-16 11 -26 19 -20 19 -20 59 15 7 6 21 8 32 3 19 -7 19 -8 -2 -8 -32 -1 -34
-13 -8 -44 23 -26 43 -38 30 -17 -3 6 -1 10 4 10 9 0 16 -27 13 -51 -1 -4 8
-15 18 -24 13 -11 20 -14 20 -6 0 7 5 9 13 5 9 -6 9 -5 0 7 -10 13 -10 16 2
16 21 0 19 -34 -2 -46 -16 -9 -16 -10 5 -11 21 0 26 8 23 40 -2 13 0 13 8 1 6
-9 6 -22 1 -31 -5 -9 -5 -22 0 -30 4 -7 6 -20 3 -29 -4 -14 -3 -14 6 -1 8 12
11 11 19 -9 8 -23 9 -23 25 10 13 26 17 29 17 13 0 -11 -12 -31 -27 -45 -14
-13 -23 -19 -20 -13 4 7 -1 15 -10 18 -10 4 -14 4 -10 -1 4 -4 -7 -15 -25 -26
-31 -17 -15 -18 24 -2 14 6 16 2 12 -19 -3 -20 0 -26 13 -26 15 0 16 2 3 10
-9 6 -10 10 -3 10 6 0 20 3 30 6 13 4 15 3 5 -4 -11 -7 -9 -14 10 -32 17 -17
18 -21 6 -17 -12 4 -18 1 -18 -8 0 -7 -5 -17 -12 -21 -7 -5 -8 -3 -3 6 6 9 4
11 -4 5 -9 -5 -9 -11 -3 -17 12 -12 4 -40 -9 -32 -5 3 -7 10 -4 15 4 5 1 9 -5
9 -8 0 -8 6 0 20 6 11 7 20 3 21 -4 0 1 4 12 9 17 8 16 8 -7 7 -27 -1 -41 -17
-15 -17 9 0 8 -3 -2 -9 -8 -5 -11 -16 -6 -30 4 -13 1 -28 -6 -37 -11 -13 -9
-14 17 -9 l29 6 -27 -16 c-16 -9 -28 -24 -28 -35 0 -11 -5 -20 -11 -20 -6 0
-8 -7 -5 -16 4 -9 1 -23 -5 -30 -9 -11 -8 -18 1 -29 7 -9 10 -19 6 -23 -4 -4
-13 1 -21 11 -11 16 -13 16 -19 2 -3 -9 -2 -14 3 -11 5 3 12 -1 15 -10 9 -23
7 -34 -5 -34 -6 0 -9 7 -5 15 3 9 0 15 -10 15 -8 0 -13 -4 -10 -8 3 -5 -5 -14
-17 -21 -30 -16 -51 -48 -31 -48 7 0 11 4 8 9 -3 4 -1 8 4 8 6 0 12 -7 16 -15
3 -10 -1 -15 -13 -15 -12 0 -17 -7 -17 -23 1 -14 -4 -21 -13 -19 -8 2 -11 -3
-8 -12 6 -15 -9 -16 -30 -3 -18 11 -16 -8 2 -23 8 -7 12 -17 8 -23 -4 -6 -10
-1 -14 11 -10 28 -25 28 -32 1 -4 -16 -3 -18 9 -8 9 7 14 8 14 1 0 -6 -4 -14
-10 -17 -6 -3 -10 -12 -10 -18 0 -7 4 -6 10 3 6 10 10 11 10 3 0 -7 8 -13 18
-13 11 0 7 -5 -12 -15 -21 -11 -32 -13 -40 -5 -8 8 -6 9 7 5 23 -9 22 -2 -5
21 -12 10 -18 13 -14 7 4 -7 2 -13 -4 -13 -6 0 -9 -4 -5 -9 3 -6 -4 -8 -17 -5
-34 6 -71 -15 -56 -33 9 -11 7 -12 -8 -7 -15 6 -17 4 -7 -6 10 -11 9 -16 -5
-26 -16 -12 -16 -12 0 -11 9 1 16 -2 15 -8 -1 -5 -5 -9 -8 -8 -4 1 -5 -6 -2
-17 3 -11 10 -17 16 -13 6 3 7 1 3 -5 -4 -7 -17 -12 -29 -12 -18 0 -19 2 -7
10 12 7 12 10 1 10 -7 0 -11 6 -7 15 7 20 -4 19 -24 -2 -15 -17 -15 -19 3 -28
20 -10 21 -29 2 -30 -5 -1 -23 -7 -39 -13 -16 -7 -37 -11 -45 -9 -10 3 -7 5 7
6 13 0 21 5 17 11 -3 5 -13 6 -22 3 -12 -5 -14 -3 -8 8 5 8 5 11 -1 6 -5 -5
-9 -12 -9 -16 0 -15 -60 -68 -73 -63 -6 2 -12 -1 -12 -8 0 -6 4 -9 9 -5 5 3
13 0 16 -6 4 -5 13 -8 21 -5 8 3 14 -1 14 -9 0 -9 -6 -12 -17 -9 -10 3 -8 -1
5 -8 22 -14 22 -15 4 -31 -23 -21 -42 -22 -42 -3 0 8 -7 17 -16 20 -13 5 -14
3 -7 -6 5 -7 6 -24 2 -38 -7 -25 -7 -25 -8 -2 -1 13 -5 20 -11 17 -5 -3 -10
-1 -10 4 0 6 4 11 9 11 6 0 8 9 6 20 -2 11 0 18 4 16 9 -6 8 31 -1 40 -4 3 -5
11 -2 18 7 19 -33 16 -51 -4 -10 -11 -20 -18 -24 -16 -3 2 -13 -3 -21 -12 -13
-14 -12 -15 3 -9 22 8 31 -8 22 -41 -4 -18 -9 -22 -14 -13 -6 10 -10 9 -15 -4
-6 -18 -26 -12 -26 8 0 8 3 8 9 -1 6 -10 10 -8 14 8 4 15 10 19 19 15 10 -6
10 -5 1 5 -9 10 -15 10 -28 -4 -9 -9 -21 -16 -27 -16 -5 0 -7 -7 -4 -16 5 -14
4 -15 -7 -5 -11 9 -17 8 -26 -2 -6 -8 -7 -18 -3 -23 4 -4 -1 -2 -10 5 -15 11
-21 9 -43 -13 -27 -27 -41 -34 -29 -14 4 7 3 8 -5 4 -14 -9 -44 -66 -38 -72 2
-3 16 0 31 5 20 8 26 8 26 -4 0 -8 -8 -12 -18 -10 -10 2 -25 -1 -33 -6 -10 -6
-6 -9 16 -10 17 -1 36 -1 43 0 6 1 12 -3 12 -9 0 -6 -4 -9 -9 -6 -5 3 -11 0
-14 -8 -3 -7 -15 -16 -27 -19 -18 -5 -21 -2 -17 15 3 11 3 17 0 14 -4 -3 -13
3 -20 14 -11 15 -19 18 -31 11 -10 -6 -23 -6 -35 1 -16 8 -18 6 -16 -14 2 -13
0 -29 -5 -36 -9 -16 -2 -27 13 -18 5 4 8 18 5 31 -2 14 0 25 6 25 7 0 8 -16 5
-44 -6 -41 -5 -44 14 -39 13 3 21 1 21 -6 0 -7 4 -10 10 -6 6 4 5 15 -2 30 -6
14 -16 21 -22 18 -6 -4 -4 2 4 13 8 10 15 21 17 23 1 2 7 -8 13 -23 6 -16 24
-33 44 -41 19 -8 36 -20 39 -27 3 -7 6 -4 7 7 1 19 1 19 11 1 9 -15 13 -16 21
-5 8 11 9 11 5 -1 -5 -20 -45 -21 -56 -3 -10 19 -46 13 -46 -7 -1 -20 18 -32
27 -17 5 9 10 8 20 -3 7 -8 9 -11 4 -7 -5 3 -15 -1 -22 -11 -10 -12 -13 -13
-14 -3 0 8 -6 11 -16 7 -13 -5 -15 -2 -11 15 5 17 2 20 -14 16 -12 -3 -22 0
-26 9 -3 9 -13 12 -24 9 -13 -4 -19 -1 -19 9 0 9 -3 15 -7 15 -25 -4 -43 3
-43 16 0 8 5 15 11 15 6 0 8 7 5 16 -3 8 -2 12 4 9 14 -9 12 8 -2 24 -10 11
-10 13 0 7 6 -4 12 -2 12 3 0 6 -7 11 -15 11 -10 0 -15 -10 -15 -29 0 -16 -3
-37 -6 -46 -6 -15 -8 -15 -25 1 -17 15 -18 15 -16 -5 1 -12 5 -21 10 -21 4 0
5 -5 2 -10 -3 -6 -2 -10 4 -10 5 0 11 5 13 12 3 9 6 9 12 0 5 -8 -3 -16 -21
-23 -15 -6 -30 -10 -32 -9 -2 1 -8 -4 -12 -12 -7 -10 -9 -10 -9 0 0 7 -5 10
-11 7 -6 -4 -8 -13 -5 -21 3 -8 1 -14 -4 -14 -6 0 -10 10 -10 22 0 29 -6 20
-13 -20 -6 -31 -5 -32 14 -21 13 7 19 7 15 1 -3 -6 -2 -13 4 -17 5 -3 12 6 16
20 7 26 16 26 20 0 1 -8 -2 -13 -7 -9 -5 3 -9 -5 -9 -17 0 -21 -1 -22 -20 -4
-11 10 -23 15 -27 12 -4 -4 2 -13 12 -21 15 -11 16 -14 4 -21 -8 -5 -11 -5 -7
0 4 4 -4 16 -17 27 -21 16 -23 23 -14 40 9 17 8 19 -8 14 -14 -4 -20 -2 -20
10 0 10 7 14 19 11 10 -3 18 -1 18 4 0 13 -34 11 -47 -2 -12 -12 -5 -52 8 -44
4 3 7 -10 6 -29 -2 -32 -3 -33 -19 -19 -9 8 -22 12 -27 8 -23 -13 -50 -14 -45
0 3 7 13 11 23 8 9 -2 23 3 30 11 9 10 10 16 3 16 -6 0 -9 7 -6 15 4 8 1 15
-6 15 -6 0 -9 4 -6 8 2 4 -8 8 -22 7 -15 0 -31 -6 -35 -13 -5 -7 -13 -9 -19
-6 -8 5 -9 -1 -4 -17 4 -13 8 -30 10 -38 4 -19 33 -33 55 -26 11 3 22 1 26 -5
3 -5 17 -10 30 -10 31 0 40 -15 22 -40 -13 -18 -15 -19 -21 -5 -3 9 -2 13 4
10 6 -3 10 -1 10 5 0 13 -48 32 -61 24 -5 -3 -6 -10 -3 -16 5 -7 2 -8 -5 -4
-7 5 -19 0 -27 -10 -14 -18 -14 -18 -5 3 16 31 14 36 -10 30 -15 -4 -23 0 -26
14 -3 10 -9 19 -14 19 -5 0 -6 -8 -2 -17 5 -15 3 -14 -10 2 -16 20 -16 19 -17
-7 0 -14 6 -29 13 -31 7 -3 5 -6 -5 -6 -10 -1 -18 5 -18 12 0 7 -7 4 -15 -7
-17 -22 -17 -22 -19 21 -1 18 1 30 6 27 5 -3 6 -10 3 -15 -4 -5 -2 -9 3 -9 15
0 22 28 9 34 -7 3 -1 5 13 5 48 -2 57 0 40 10 -8 6 -18 7 -22 5 -4 -3 -5 2 -1
11 5 13 7 14 14 3 7 -10 9 -9 9 5 0 9 -4 17 -10 17 -5 0 -7 13 -4 28 4 22 2
29 -10 29 -19 0 -21 -14 -4 -19 7 -3 2 -13 -13 -28 -13 -12 -19 -20 -12 -16
24 14 22 -13 -3 -29 -15 -9 -23 -12 -20 -6 4 6 2 11 -5 11 -6 0 -18 8 -25 18
-7 9 -14 12 -14 5 0 -6 7 -18 15 -27 8 -8 15 -27 15 -43 0 -15 -4 -23 -8 -17
-8 12 -42 15 -42 3 0 -8 -50 -2 -59 7 -2 2 8 4 24 4 23 0 26 2 15 15 -7 8 -9
15 -4 15 5 1 0 8 -11 18 -11 9 -21 26 -23 37 -3 20 -2 20 13 1 8 -11 15 -23
15 -28 0 -4 5 -8 11 -8 8 0 7 6 -2 17 -8 9 -13 19 -13 22 1 3 -1 12 -3 18 -4
9 -13 7 -33 -7 -15 -11 -34 -20 -42 -20 -8 0 -23 -6 -33 -14 -19 -14 -19 -15
-1 -35 11 -12 14 -21 8 -21 -6 0 -12 5 -14 11 -2 7 -11 7 -28 0 -14 -5 -19
-10 -12 -10 16 -1 16 -18 -1 -18 -7 0 -14 10 -15 23 -1 18 3 21 21 18 21 -4
21 -4 -1 6 -13 5 -28 8 -33 5 -5 -4 -6 1 -3 10 5 12 9 13 20 4 17 -14 19 2 2
20 -11 10 -9 11 6 5 13 -5 17 -4 12 4 -5 8 -2 10 9 6 12 -5 13 -9 4 -20 -21
-26 -5 -23 26 4 17 14 22 23 13 19 -10 -3 -21 -1 -25 6 -9 14 -55 18 -46 4 4
-6 1 -7 -8 -1 -32 20 -45 14 -44 -21 0 -19 3 -35 6 -35 4 0 10 -7 13 -16 5
-13 4 -14 -7 -6 -8 7 -18 8 -22 4 -5 -4 -5 -2 -2 4 4 7 1 17 -6 23 -11 9 -13
3 -11 -29 1 -22 -2 -42 -7 -46 -5 -3 -10 1 -10 8 -1 7 -3 23 -4 35 -1 13 2 20
8 16 6 -3 7 -1 3 5 -4 7 -14 12 -22 12 -8 0 -14 8 -15 18 0 14 -2 14 -9 -3 -8
-19 -9 -19 -9 2 -1 15 -6 21 -15 17 -11 -4 -13 0 -9 16 3 12 11 19 19 16 7 -3
18 2 24 10 9 10 9 14 1 14 -6 0 -11 -6 -12 -12 0 -10 -2 -10 -6 0 -9 22 -31
12 -35 -16 -5 -35 0 -54 13 -46 14 9 10 -10 -7 -32 -13 -16 -15 -16 -10 -1 3
9 1 17 -5 17 -6 0 -7 5 -4 10 13 21 -9 9 -31 -17 -28 -32 -30 -43 -9 -43 8 0
15 9 15 21 0 11 5 17 10 14 6 -3 7 -17 4 -30 -6 -23 11 -44 24 -30 4 4 1 10
-5 12 -7 3 -13 10 -13 15 0 6 3 8 6 5 4 -3 14 -2 24 3 26 14 31 1 9 -21 -16
-16 -18 -23 -8 -42 9 -17 4 -14 -21 10 -26 26 -37 30 -51 22 -17 -8 -18 -6
-15 21 4 34 1 36 -20 16 -17 -17 -19 -30 -2 -20 7 5 8 3 4 -5 -6 -9 -12 -8
-26 4 -10 9 -24 14 -31 10 -8 -6 -9 -3 -2 10 12 20 5 65 -10 65 -6 0 -7 3 -4
7 4 3 0 17 -8 29 -11 17 -12 24 -2 27 7 3 4 6 -6 6 -14 1 -17 -4 -12 -19 7
-23 -13 -28 -21 -5 -4 8 -10 12 -15 9 -5 -3 -9 0 -9 6 0 6 -5 8 -10 5 -6 -4
-9 -1 -8 7 2 8 -6 12 -22 11 -22 -2 -23 -2 -5 6 11 5 23 7 28 4 4 -2 7 1 7 6
0 6 -5 11 -11 11 -5 0 -8 4 -4 9 3 5 0 13 -7 18 -18 11 -69 13 -62 2 3 -5 1
-9 -5 -9 -5 0 -12 -8 -14 -17 -4 -14 -5 -13 -6 4 0 12 -5 24 -9 27 -5 3 -7 19
-4 36 2 17 0 30 -6 30 -6 0 -19 3 -29 6 -10 3 -14 2 -8 -3 6 -4 11 -14 12 -20
2 -9 -7 -8 -32 4 -19 9 -32 20 -29 24 2 4 -1 11 -7 15 -9 5 -10 0 -7 -14 4
-12 2 -25 -3 -28 -5 -3 -7 -10 -4 -15 4 -5 -2 -6 -11 -2 -12 5 -14 8 -5 11 7
2 0 12 -19 23 -17 11 -35 17 -40 14 -4 -3 -11 2 -14 11 -3 8 -11 12 -17 8 -8
-4 -9 -3 -5 5 4 6 16 9 27 6 11 -4 19 -2 19 5 0 6 -5 8 -10 5 -6 -3 -13 1 -16
9 -3 9 -11 16 -16 16 -5 0 -21 9 -35 20 -31 24 -43 25 -43 3 0 -13 -3 -14 -12
-5 -10 10 -10 17 0 32 12 20 6 54 -9 44 -5 -3 -9 3 -9 13 0 15 -2 16 -10 3 -7
-11 -5 -19 7 -27 18 -14 12 -25 -13 -29 -11 -2 -12 1 -4 11 8 9 8 15 0 20 -6
3 -8 11 -5 16 4 5 -1 9 -9 9 -9 0 -16 7 -16 15 0 9 -10 20 -22 25 -14 5 -17 9
-8 10 12 0 12 3 -3 14 -10 8 -27 12 -37 9 -15 -4 -20 0 -20 13 0 16 -2 16 -9
4 -6 -8 -7 -18 -5 -22 3 -4 0 -8 -5 -8 -6 0 -11 7 -11 16 0 9 -5 12 -12 8 -7
-5 -8 -3 -4 5 5 8 0 14 -13 18 -17 4 -20 10 -14 31 5 20 3 24 -9 20 -10 -4
-14 0 -13 15 2 12 8 21 15 19 7 -2 17 3 21 10 6 9 9 9 9 1 0 -6 -4 -15 -10
-18 -5 -3 -10 -11 -10 -16 0 -6 5 -7 12 -3 8 5 9 2 5 -9 -4 -12 -1 -17 9 -17
12 0 14 5 9 18 -4 9 -7 30 -6 45 1 18 -2 26 -9 22 -6 -4 -11 -1 -9 6 3 29 -1
38 -17 32 -14 -5 -15 -3 -6 14 12 22 7 33 -16 33 -10 0 -12 -7 -8 -25 4 -14 3
-25 -2 -25 -4 0 -9 12 -10 26 -2 31 -11 46 -22 39 -4 -3 -6 5 -2 17 4 16 2 19
-9 12 -17 -10 -43 -15 -34 -6 4 4 10 7 13 8 21 3 42 18 42 31 0 13 -3 13 -15
3 -23 -19 -18 -6 6 16 l21 19 -3 -50 c-4 -45 -2 -50 17 -51 22 -1 27 17 9 33
-4 4 -5 2 -1 -4 8 -15 -10 -18 -19 -3 -3 6 0 13 8 16 16 6 11 44 -6 56 -7 4
-6 12 2 22 7 8 11 21 8 28 -3 8 -6 6 -6 -5 -1 -11 -6 -15 -13 -11 -6 4 -8 3
-4 -4 3 -6 2 -13 -3 -16 -15 -10 -6 23 12 44 14 17 14 20 2 20 -8 0 -15 -7
-15 -15 0 -8 -4 -15 -9 -15 -4 0 -6 11 -3 25 3 16 10 24 20 23 8 -2 17 3 19
10 3 7 -1 10 -11 6 -17 -7 -22 11 -6 21 18 11 12 38 -7 31 -13 -4 -11 0 6 14
13 11 18 20 11 20 -8 0 -9 4 -3 13 12 15 27 54 17 44 -4 -4 -12 -3 -18 3 -7 5
-17 5 -26 0 -12 -8 -10 -10 8 -10 13 0 22 -6 22 -15 0 -8 -5 -15 -11 -15 -5 0
-8 4 -5 9 3 5 -6 12 -20 15 -27 7 -28 33 0 28 11 -2 16 4 16 21 0 13 9 32 21
43 13 12 18 26 15 40 -4 16 -1 23 15 27 12 3 18 10 14 16 -3 6 -1 11 4 11 6 0
11 8 10 18 0 9 -3 12 -5 5 -3 -7 -12 -9 -19 -7 -11 5 -11 9 -2 19 6 7 18 10
24 8 8 -3 13 3 13 15 0 11 -6 23 -12 25 -7 3 -4 6 8 6 31 1 36 12 19 38 -9 13
-13 28 -10 33 3 6 1 10 -6 10 -7 0 -10 3 -6 6 3 4 14 3 24 0 15 -6 15 -8 3
-16 -11 -7 -12 -12 -4 -20 8 -8 15 -4 27 14 14 21 15 25 1 30 -8 3 -12 10 -9
16 3 5 2 10 -3 10 -6 0 -12 7 -15 14 -4 10 -1 13 9 9 8 -3 14 1 14 8 0 11 2
11 10 -1 5 -8 12 -11 15 -8 12 12 -7 30 -26 25 -11 -3 -16 -1 -13 5 3 5 17 7
31 3 14 -3 22 -2 19 3 -7 11 46 72 62 72 7 0 12 7 12 15 0 8 3 14 8 14 21 -4
23 3 7 21 -16 18 -8 30 9 13 11 -11 36 -12 36 -2 0 6 4 8 9 4 5 -3 12 -1 15 4
4 6 -7 8 -26 6 -30 -4 -31 -3 -15 10 11 7 25 11 33 8 8 -3 14 0 14 6 0 6 5 11
11 11 5 0 7 -6 3 -12 -5 -9 -2 -9 9 1 19 15 22 22 8 18 -5 -1 -9 3 -9 8 -1 6
6 9 14 9 8 -1 14 2 14 7 0 5 3 8 7 8 20 -3 24 2 13 16 -10 12 -10 15 3 15 8 0
18 -6 21 -12 3 -7 3 -3 0 9 -4 17 -2 21 8 18 8 -3 27 6 44 21 22 20 24 23 7
15 -15 -8 -23 -8 -23 -1 0 5 5 10 11 10 6 0 9 7 6 15 -4 8 -2 17 4 21 15 9 41
-17 34 -35 -6 -15 -5 -15 10 0 13 12 14 21 5 44 -6 15 -8 30 -5 33 3 3 5 -1 6
-9 0 -8 5 -3 11 11 6 14 10 29 9 34 -1 5 5 3 14 -4 8 -7 18 -10 22 -6 3 3 1 6
-5 6 -26 0 -10 19 16 19 50 2 61 4 56 13 -3 4 2 8 10 8 9 0 13 6 10 13 -3 8 2
14 11 14 18 0 20 -18 3 -35 -10 -10 -10 -15 2 -22 9 -6 16 -6 18 0 2 6 8 8 13
4 5 -3 9 0 9 6 0 6 5 8 12 4 7 -4 8 -3 4 5 -4 6 0 18 8 27 10 10 16 11 16 3 0
-8 3 -9 13 0 10 8 14 7 14 -4 0 -8 -6 -15 -13 -15 -7 0 -16 -5 -19 -11 -4 -5
8 -4 27 4 18 8 39 12 47 9 9 -3 11 0 6 7 -4 7 -13 10 -21 7 -8 -3 -11 0 -7 10
5 13 -8 19 -31 15 -5 -1 -4 4 2 12 7 8 9 16 6 20 -3 3 2 4 13 3 27 -5 36 4 21
22 -12 14 -10 14 11 3 19 -10 21 -15 10 -22 -9 -6 -10 -9 -2 -9 7 0 11 -11 10
-27 -1 -15 4 -28 12 -31 10 -3 11 0 5 9 -6 11 -3 10 11 -1 10 -8 16 -10 12 -4
-4 7 0 17 8 24 12 10 14 8 11 -7 -3 -13 2 -19 15 -20 16 -2 17 1 8 19 -13 24
1 44 25 35 21 -8 21 -27 0 -27 -23 0 -12 -23 13 -26 17 -3 20 1 16 19 -3 13
-1 18 4 11 4 -6 18 -13 31 -17 28 -7 40 16 22 38 -10 12 -10 15 3 15 8 0 17 7
21 15 3 8 1 15 -5 15 -5 0 -4 6 3 14 7 8 17 12 22 9 4 -3 2 -9 -5 -14 -11 -7
-10 -9 4 -9 9 0 17 5 17 12 0 16 13 1 16 -18 2 -11 -3 -14 -17 -11 -10 3 -22
1 -25 -4 -3 -5 0 -10 5 -10 41 -5 46 -3 47 21 2 19 -7 31 -34 48 -32 21 -37
22 -48 8 -13 -18 -29 -22 -18 -5 3 6 0 16 -7 21 -10 7 -7 7 9 3 16 -5 24 -1
29 11 6 15 7 15 14 -3 4 -12 12 -24 18 -28z m931 14 c-14 -25 -18 -24 -15 4 3
29 3 29 15 22 7 -4 7 -13 0 -26z m-1201 -13 c-3 -3 -11 5 -18 17 -13 21 -12
21 5 5 10 -10 16 -20 13 -22z m37 -4 c-4 -24 -19 -17 -22 10 -2 22 0 25 10 15
8 -6 13 -18 12 -25z m47 4 c7 4 8 3 4 -1 -17 -19 -35 -13 -29 9 5 18 7 18 10
3 2 -10 8 -14 15 -11z m555 -1 c-3 -3 -9 2 -12 12 -6 14 -5 15 5 6 7 -7 10
-15 7 -18z m48 16 c-4 -5 -1 -11 6 -13 8 -3 8 -9 -1 -24 -11 -19 -11 -19 -9 1
2 14 -2 20 -14 19 -10 -1 -18 2 -18 6 0 5 8 11 18 13 9 3 18 5 20 6 2 0 1 -3
-2 -8z m184 -26 c0 -13 -45 -14 -56 -2 -5 4 -1 5 8 2 11 -4 18 0 23 16 6 17 9
19 16 8 5 -8 9 -19 9 -24z m31 20 c11 6 11 5 2 -5 -12 -14 -33 -6 -33 13 0 8
3 7 9 -2 5 -8 14 -10 22 -6z m209 -10 c9 -11 16 -13 24 -5 5 5 16 10 24 10 9
0 4 -9 -12 -21 -15 -12 -25 -27 -22 -34 2 -8 -2 -16 -9 -19 -11 -4 -12 0 -5
19 9 23 6 29 -12 26 -4 0 -5 6 -2 13 4 9 -3 16 -18 19 -21 4 -21 4 -2 6 12 0
27 -6 34 -14z m-930 -10 c-7 -9 -15 -13 -19 -10 -3 3 1 10 9 15 21 14 24 12
10 -5z m450 -13 c-1 -13 -30 -46 -35 -40 -9 9 14 60 25 53 5 -3 10 -9 10 -13z
m-714 -7 c-1 -8 -6 -18 -11 -22 -4 -4 -5 -2 -1 5 4 7 2 12 -6 12 -9 0 -9 3 2
10 19 12 19 13 16 -5z m1129 6 c3 -5 1 -12 -5 -16 -5 -3 -10 1 -10 9 0 18 6
21 15 7z m152 3 c-3 -3 -12 -4 -19 -1 -8 3 -5 6 6 6 11 1 17 -2 13 -5z m-1344
-24 c-3 -11 -1 -20 4 -20 5 0 17 -6 28 -13 14 -11 15 -16 5 -22 -9 -6 -11 -4
-6 4 5 8 3 12 -5 10 -27 -3 -40 1 -34 11 3 6 -1 10 -10 10 -9 0 -13 -4 -10
-10 3 -5 0 -7 -8 -4 -22 8 -17 35 5 28 10 -3 18 -2 17 3 -3 15 1 23 10 23 5 0
7 -9 4 -20z m234 5 c0 -8 -4 -12 -9 -9 -5 3 -6 -6 -2 -20 4 -17 2 -26 -6 -26
-6 0 -8 5 -4 12 5 7 3 8 -5 4 -7 -5 -10 -15 -7 -25 5 -13 3 -13 -8 2 -14 19
-16 50 -2 45 4 -2 12 5 17 15 12 21 26 22 26 2z m818 -6 c-4 -5 -12 -9 -18 -8
-9 0 -8 2 1 6 6 2 9 10 6 15 -4 7 -2 8 5 4 6 -4 9 -12 6 -17z m-929 -8 c1 -6
0 -7 -2 -2 -3 6 -12 7 -20 4 -8 -3 -14 -1 -14 5 0 14 33 8 36 -7z m151 13 c-3
-3 -12 -4 -19 -1 -8 3 -5 6 6 6 11 1 17 -2 13 -5z m1070 0 c-3 -3 -12 -4 -19
-1 -8 3 -5 6 6 6 11 1 17 -2 13 -5z m141 -9 c4 -4 -9 -4 -28 -1 -22 5 -30 4
-22 -2 11 -8 11 -10 -1 -15 -16 -6 -31 3 -34 19 -2 12 73 12 85 -1z m26 -1 c3
-8 2 -12 -4 -9 -6 3 -10 10 -10 16 0 14 7 11 14 -7z m-1154 -4 c0 -5 -2 -10
-4 -10 -3 0 -8 5 -11 10 -3 6 -1 10 4 10 6 0 11 -4 11 -10z m1026 -16 c-1 -13
-5 -26 -9 -29 -4 -3 -5 -2 -3 1 3 3 1 16 -4 28 -6 16 -5 23 4 23 7 0 12 -11
12 -23z m-1106 8 c0 -5 -7 -9 -15 -9 -8 0 -15 4 -15 9 0 4 7 8 15 8 8 0 15 -4
15 -8z m947 -7 c0 -8 -4 -15 -9 -15 -4 0 -8 5 -8 11 0 5 -5 7 -12 3 -7 -4 -8
-3 -4 4 10 17 33 15 33 -3z m313 1 c0 -3 -13 -11 -30 -20 -16 -8 -30 -11 -30
-6 0 7 23 18 58 29 1 1 2 -1 2 -3z m-1195 -17 c-6 -9 -45 -8 -45 2 0 4 11 7
25 7 13 0 22 -4 20 -9z m1122 5 c-3 -3 -12 -4 -19 -1 -8 3 -5 6 6 6 11 1 17
-2 13 -5z m-1493 -26 c-2 -3 -13 -6 -24 -5 -24 2 -18 13 9 13 11 0 18 -4 15
-8z m103 5 c-9 -2 -14 -9 -11 -15 4 -7 2 -8 -5 -4 -15 10 -4 26 17 25 15 -1
15 -2 -1 -6z m1131 -30 c-15 -18 -21 -9 -13 18 6 16 9 18 16 8 4 -8 3 -19 -3
-26z m-1308 23 c0 -3 -4 -8 -10 -11 -5 -3 -10 -1 -10 4 0 6 5 11 10 11 6 0 10
-2 10 -4z m1249 -24 c-5 -2 -7 -7 -5 -11 3 -4 -8 -5 -25 -3 -16 2 -29 9 -29
14 0 5 5 6 10 3 6 -3 10 0 10 7 0 9 3 9 10 -2 8 -13 10 -12 10 3 0 15 2 16 14
5 8 -7 10 -15 5 -16z m365 13 c3 -8 1 -15 -4 -15 -6 0 -10 7 -10 15 0 8 2 15
4 15 2 0 6 -7 10 -15z m-1471 -30 c-3 -9 -8 -14 -10 -11 -3 3 -2 9 2 15 9 16
15 13 8 -4z m1357 5 c0 -5 -8 -10 -17 -10 -15 0 -16 2 -3 10 19 12 20 12 20 0z
m144 -12 c-5 -8 -1 -9 10 -5 11 4 15 3 11 -4 -10 -14 -28 -6 -31 14 -1 9 2 15
7 11 5 -3 6 -10 3 -16z m-1644 -3 c0 -2 -6 -5 -13 -8 -8 -3 -14 1 -14 8 0 7 6
11 14 8 7 -3 13 -6 13 -8z m60 3 c0 -4 -9 -8 -20 -8 -11 0 -20 4 -20 9 0 6 9
9 20 8 11 -1 20 -5 20 -9z m1277 -3 c0 -8 -4 -15 -9 -15 -4 0 -8 7 -8 15 0 8
4 15 8 15 5 0 9 -7 9 -15z m210 -6 c2 -16 -1 -19 -9 -11 -5 5 -7 15 -4 21 10
15 12 14 13 -10z m-108 -37 c1 -7 -4 -10 -9 -7 -6 4 -8 10 -5 15 3 5 0 12 -6
16 -8 4 -9 3 -5 -4 4 -7 2 -12 -3 -12 -15 0 -14 13 1 28 10 10 14 9 20 -5 3
-10 7 -24 7 -31z m151 44 c0 -2 -8 -10 -17 -17 -16 -13 -17 -12 -4 4 13 16 21
21 21 13z m-1662 -34 c-7 -10 -13 -18 -14 -20 -1 -2 -4 4 -8 13 -3 9 -2 13 4
10 6 -3 10 1 10 10 0 9 5 13 10 10 8 -5 7 -12 -2 -23z m1452 -2 c0 -5 -7 -7
-15 -4 -8 4 -12 10 -9 15 6 11 24 2 24 -11z m-1420 -10 c0 -5 -5 -10 -11 -10
-5 0 -7 5 -4 10 3 6 8 10 11 10 2 0 4 -4 4 -10z m1727 -12 c-3 -8 -6 -5 -6 6
-1 11 2 17 5 13 3 -3 4 -12 1 -19z m-1786 -5 c13 -16 12 -17 -3 -4 -10 7 -18
15 -18 17 0 8 8 3 21 -13z m1519 13 c0 -3 -4 -8 -10 -11 -5 -3 -10 -1 -10 4 0
6 5 11 10 11 6 0 10 -2 10 -4z m387 -38 c-3 -8 -6 -5 -6 6 -1 11 2 17 5 13 3
-3 4 -12 1 -19z m-92 -21 c0 -15 7 -32 15 -38 12 -9 11 -9 -5 -3 -11 4 -30 7
-43 7 -23 -1 -26 21 -4 23 7 1 17 2 22 3 14 2 8 25 -10 33 -11 6 -10 7 5 5 15
-2 20 -10 20 -30z m45 8 c0 -2 -7 -8 -15 -15 -12 -10 -15 -10 -15 2 0 8 7 15
15 15 8 0 15 -1 15 -2z m-1885 -45 c0 -37 -4 -37 -30 -2 -13 18 -14 23 -3 14
13 -10 17 -10 22 3 8 22 11 19 11 -15z m1925 -12 c-8 -7 -20 -20 -27 -28 -8
-9 -12 -11 -13 -3 0 15 28 43 43 43 7 0 6 -5 -3 -12z m-1978 -31 c-12 -13 -22
-29 -22 -35 0 -14 -36 -10 -52 6 -6 6 -8 15 -3 19 4 5 10 2 12 -4 3 -7 12 -13
20 -13 14 0 14 3 -2 20 -10 11 -13 20 -7 20 6 0 13 -6 16 -12 3 -10 9 -8 19 4
8 10 17 15 20 11 4 -3 7 0 7 7 0 7 3 10 7 7 3 -4 -3 -17 -15 -30z m1848 17 c0
-8 -5 -12 -10 -9 -6 4 -8 11 -5 16 9 14 15 11 15 -7z m148 -24 c-3 -21 0 -30
9 -30 8 0 11 5 8 10 -3 6 -4 10 -1 10 3 0 10 -9 16 -19 9 -18 8 -19 -19 -11
-16 4 -33 5 -37 2 -5 -4 -2 2 6 12 14 18 13 19 -5 13 -19 -7 -19 -6 -2 7 9 7
17 18 17 25 0 6 3 11 6 11 4 0 4 -13 2 -30z m95 -27 c-6 -16 -23 -17 -23 -2 0
6 -6 9 -14 6 -8 -3 -17 1 -20 8 -4 11 0 12 20 5 33 -13 34 -13 28 8 -5 13 -4
14 4 3 6 -8 8 -20 5 -28z m43 -8 c-9 -9 -16 -13 -16 -8 0 12 22 34 28 28 2 -2
-3 -11 -12 -20z m-176 -15 c0 -4 -7 -11 -16 -14 -13 -5 -14 -4 -6 7 7 8 8 18
4 22 -4 5 -1 5 6 1 6 -4 12 -11 12 -16z m50 -26 c0 -13 7 -30 16 -38 13 -14
13 -16 1 -16 -9 0 -17 -5 -19 -12 -3 -7 -10 -8 -17 -3 -11 6 -10 10 3 17 16 9
16 11 0 29 -25 27 -26 48 -3 46 13 -1 19 -9 19 -23z m40 -16 c0 -19 -16 -5
-17 14 -2 18 0 20 7 8 5 -8 10 -18 10 -22z m30 6 c0 -8 -4 -12 -10 -9 -5 3
-10 13 -10 21 0 8 5 12 10 9 6 -3 10 -13 10 -21z m-2190 6 c0 -5 -2 -10 -4
-10 -3 0 -8 5 -11 10 -3 6 -1 10 4 10 6 0 11 -4 11 -10z m2090 -24 c0 -2 -6
-9 -14 -15 -11 -9 -16 -9 -22 0 -4 8 -3 9 4 5 7 -4 12 -2 12 3 0 6 5 11 10 11
6 0 10 -2 10 -4z m120 -16 c0 -5 -2 -10 -4 -10 -3 0 -8 5 -11 10 -3 6 -1 10 4
10 6 0 11 -4 11 -10z m-2273 -36 c-3 -3 -12 -4 -19 -1 -8 3 -5 6 6 6 11 1 17
-2 13 -5z m-41 -23 c-4 -5 0 -11 6 -14 7 -2 -1 -11 -18 -20 -24 -13 -31 -13
-31 -2 0 8 7 11 16 7 9 -3 13 -2 9 3 -4 4 -3 14 3 22 13 15 23 18 15 4z m2431
-116 c0 -11 -4 -12 -14 -4 -7 6 -13 13 -13 15 0 2 6 4 13 4 8 0 14 -7 14 -15z
m100 -7 c-3 -8 -6 -5 -6 6 -1 11 2 17 5 13 3 -3 4 -12 1 -19z m-64 -1 c7 3 3
-3 -7 -15 -20 -23 -36 -28 -36 -12 0 6 7 10 15 10 8 0 13 6 11 13 -1 6 -1 9 1
4 3 -4 10 -4 16 0z m47 -59 c0 -7 4 -7 13 0 7 5 21 6 32 1 13 -5 15 -8 5 -8
-10 -1 -11 -4 -4 -9 19 -13 23 -40 8 -53 -8 -7 -14 -8 -12 -3 1 5 -1 24 -5 43
-6 27 -10 31 -20 22 -11 -8 -18 -6 -32 9 -17 18 -17 20 -2 14 9 -3 17 -11 17
-16z m-2606 -54 c3 -8 2 -12 -4 -9 -6 3 -10 10 -10 16 0 14 7 11 14 -7z m-53
-21 c-12 -20 -14 -14 -5 12 4 9 9 14 11 11 3 -2 0 -13 -6 -23z m-14 -45 c-3
-8 -6 -5 -6 6 -1 11 2 17 5 13 3 -3 4 -12 1 -19z m-67 8 c0 -2 -7 -7 -16 -10
-8 -3 -12 -2 -9 4 6 10 25 14 25 6z m2910 -46 c0 -5 -9 -6 -20 -3 -11 3 -20 9
-20 13 0 5 9 6 20 3 11 -3 20 -9 20 -13z m-2883 -25 c0 -8 -4 -12 -9 -9 -5 3
-6 10 -3 15 9 13 12 11 12 -6z m70 -1 c-3 -3 -12 -4 -19 -1 -8 3 -5 6 6 6 11
1 17 -2 13 -5z m2843 -39 c0 -8 -4 -15 -10 -15 -5 0 -7 7 -4 15 4 8 8 15 10
15 2 0 4 -7 4 -15z m-35 -15 c-3 -5 -12 -10 -18 -10 -7 0 -6 4 3 10 19 12 23
12 15 0z m62 -95 c0 -8 -4 -12 -9 -9 -5 3 -6 10 -3 15 9 13 12 11 12 -6z
m-3012 -45 c-3 -5 -11 -10 -16 -10 -6 0 -7 5 -4 10 3 6 11 10 16 10 6 0 7 -4
4 -10z m90 -20 c6 -9 -8 -14 -27 -11 -5 0 -8 -4 -8 -11 0 -6 -3 -8 -6 -5 -8 7
14 37 27 37 4 0 11 -4 14 -10z m2841 -25 c-11 -8 -22 -12 -25 -9 -6 6 19 24
34 24 6 -1 1 -7 -9 -15z m-2861 -29 c11 5 12 -1 3 -33 -12 -47 -19 -55 -38
-43 -13 8 -12 10 3 10 10 0 15 5 12 10 -3 6 -1 10 4 10 6 0 11 7 11 15 0 8 -6
12 -14 9 -7 -3 -16 2 -20 11 -3 9 -2 13 4 10 6 -3 10 0 11 7 0 9 2 10 5 1 3
-7 11 -9 19 -7z m2855 -1 c-7 -9 -15 -13 -19 -10 -3 3 1 10 9 15 21 14 24 12
10 -5z m60 11 c0 -2 -7 -9 -15 -16 -12 -10 -15 -10 -15 4 0 9 7 16 15 16 8 0
15 -2 15 -4z m-41 -57 c-13 -13 -25 -16 -40 -11 -20 8 -20 9 -3 23 13 10 16
11 10 1 -6 -10 -3 -13 10 -10 11 2 18 9 17 16 -2 6 4 9 11 6 12 -4 11 -9 -5
-25z m-35 -44 c9 -14 15 -25 13 -25 -2 0 -13 11 -25 25 -12 14 -18 25 -13 25
5 0 16 -11 25 -25z m-56 -85 c7 -11 11 -20 9 -20 -2 0 -12 9 -22 20 -10 11
-14 20 -9 20 5 0 15 -9 22 -20z m-48 -130 c0 -5 -5 -10 -11 -10 -5 0 -7 5 -4
10 3 6 8 10 11 10 2 0 4 -4 4 -10z m-170 -75 c0 -2 -9 -3 -19 -2 -11 0 -18 5
-15 9 4 6 34 0 34 -7z m66 -27 c5 4 5 3 1 -2 -12 -15 -34 -15 -34 0 0 9 4 11
12 4 7 -5 16 -6 21 -2z m-39 -28 c9 0 14 -3 10 -6 -3 -4 -14 -3 -24 1 -18 8
-27 11 -40 14 -5 1 -1 6 7 11 10 6 17 5 23 -5 4 -8 15 -15 24 -15z m-2 -40
c-27 -12 -43 -12 -25 0 8 5 22 9 30 9 10 0 8 -3 -5 -9z m360 -30 c3 -5 1 -10
-4 -10 -6 0 -11 5 -11 10 0 6 2 10 4 10 3 0 8 -4 11 -10z m-2792 -35 c-3 -9
-8 -14 -10 -11 -3 3 -2 9 2 15 9 16 15 13 8 -4z m2371 -11 c3 -8 2 -12 -4 -9
-6 3 -10 10 -10 16 0 14 7 11 14 -7z m-2336 -20 c-14 -14 -16 -14 -21 0 -4 10
-1 13 9 9 7 -3 14 1 14 8 0 7 3 9 7 5 4 -3 0 -13 -9 -22z m2262 16 c0 -5 -5
-10 -11 -10 -5 0 -7 5 -4 10 3 6 8 10 11 10 2 0 4 -4 4 -10z m42 3 c-6 -2 -10
-9 -6 -14 3 -5 0 -8 -8 -7 -7 2 -12 -3 -10 -10 1 -8 -2 -11 -8 -7 -15 9 7 45
28 44 10 0 12 -3 4 -6z m-99 -30 c-3 -7 -10 -11 -16 -10 -7 1 -11 -5 -11 -14
1 -9 -5 -16 -12 -16 -12 0 -11 4 1 23 13 20 13 23 -3 27 -9 3 -3 5 14 4 21 -1
30 -5 27 -14z m-2153 -15 c0 -19 -2 -20 -10 -8 -13 19 -13 30 0 30 6 0 10 -10
10 -22z m2000 -15 c0 -13 -3 -13 -15 -3 -12 10 -15 10 -15 -4 0 -9 6 -16 13
-17 8 0 8 -2 -2 -6 -11 -5 -11 -7 0 -14 11 -7 10 -9 -3 -9 -10 0 -18 -4 -18
-10 0 -5 5 -10 11 -10 8 0 9 -4 0 -13 -6 -8 -7 -18 -3 -22 4 -5 1 -5 -6 -1 -7
4 -19 3 -26 -3 -10 -8 -17 -7 -26 4 -9 10 -9 15 -1 15 6 0 11 -6 11 -12 1 -8
6 -6 14 4 7 10 16 15 19 11 4 -3 7 -1 7 4 0 6 -6 14 -12 16 -9 4 -10 8 -3 14
14 10 17 53 4 53 -6 0 -7 5 -4 10 4 6 10 8 15 5 5 -3 11 -1 15 5 9 14 25 3 25
-17z m210 1 c0 -2 -8 0 -19 5 -10 6 -22 7 -26 3 -5 -4 -5 -1 -1 6 5 9 12 9 27
2 10 -6 19 -13 19 -16z m-80 -39 c-10 -12 -9 -15 6 -16 17 -1 17 -2 1 -6 -9
-2 -14 -9 -11 -15 5 -7 2 -8 -6 -3 -7 4 -16 2 -21 -6 -7 -11 -9 -10 -9 4 0 9
7 17 17 17 9 0 13 3 10 7 -7 6 10 33 20 33 3 0 0 -7 -7 -15z m-2030 -16 c0 -6
-4 -7 -10 -4 -5 3 -10 11 -10 16 0 6 5 7 10 4 6 -3 10 -11 10 -16z m49 -26 c2
-2 -5 -3 -16 -3 -11 0 -20 7 -20 15 0 12 3 12 16 3 9 -7 18 -14 20 -15z m-26
-17 c3 3 4 -2 3 -13 -2 -10 2 -25 8 -33 10 -13 9 -13 -6 -1 -10 7 -15 17 -12
22 3 5 -1 12 -10 15 -8 3 -17 13 -21 22 -5 14 -4 14 13 -1 10 -9 21 -14 25
-11z m-176 -1 c0 -8 -4 -12 -9 -9 -5 3 -6 10 -3 15 9 13 12 11 12 -6z m1863
-5 c0 -5 -7 -10 -15 -10 -8 0 -15 -5 -15 -11 0 -5 5 -7 12 -3 6 4 3 -4 -8 -18
-10 -14 -21 -25 -23 -23 -1 2 -14 0 -27 -5 -18 -7 -22 -6 -17 5 3 8 9 13 13
10 5 -3 15 2 22 10 43 53 58 64 58 45z m80 0 c0 -5 -4 -10 -10 -10 -5 0 -10 5
-10 10 0 6 5 10 10 10 6 0 10 -4 10 -10z m-36 -22 c-5 -7 -1 -9 9 -5 10 4 17
2 17 -4 0 -7 -10 -9 -24 -5 -26 6 -46 -9 -24 -17 7 -3 4 -5 -8 -4 -15 1 -20 6
-16 19 2 10 8 16 12 13 4 -3 11 2 14 11 3 8 10 12 16 9 6 -4 7 -11 4 -17z
m263 16 c-3 -3 -12 -4 -19 -1 -8 3 -5 6 6 6 11 1 17 -2 13 -5z m-197 -59 c-8
-9 -8 -15 0 -20 14 -8 13 -35 -2 -35 -6 0 -8 3 -5 7 4 3 -3 18 -15 31 -13 14
-18 22 -12 19 7 -4 15 0 18 9 3 8 11 12 16 9 8 -5 8 -11 0 -20z m154 10 c3 -8
1 -15 -4 -15 -6 0 -10 7 -10 15 0 8 2 15 4 15 2 0 6 -7 10 -15z m-1787 -9 c-8
-19 3 -28 19 -15 13 10 32 -6 20 -18 -3 -4 -6 -1 -6 6 0 7 -5 9 -10 6 -8 -5
-8 -11 0 -20 8 -10 8 -15 -2 -21 -7 -4 -10 -3 -5 1 4 5 -2 19 -14 31 -12 12
-18 27 -14 33 9 16 18 13 12 -3z m1681 5 c-2 -18 3 -24 10 -13 6 8 9 2 9 -18
0 -31 -11 -37 -37 -20 -13 8 -12 10 3 10 9 0 17 5 17 10 0 6 -4 10 -9 10 -5 0
-11 6 -14 13 -3 8 1 14 8 14 8 0 14 -3 13 -6z m102 -25 c0 -3 -4 -8 -10 -11
-5 -3 -10 -1 -10 4 0 6 5 11 10 11 6 0 10 -2 10 -4z m-249 -31 c12 8 11 -6 -1
-25 -8 -13 -10 -12 -10 3 0 10 -4 16 -9 13 -5 -4 -6 4 -3 16 5 19 7 20 10 5 2
-9 8 -15 13 -12z m229 -7 c0 -6 -6 -5 -15 2 -8 7 -15 14 -15 16 0 2 7 1 15 -2
8 -4 15 -11 15 -16z m-1680 -23 c0 -5 -5 -3 -10 5 -5 8 -10 20 -10 25 0 6 5 3
10 -5 5 -8 10 -19 10 -25z m95 25 c4 -6 -1 -7 -12 -3 -16 6 -16 5 -4 -10 11
-15 11 -17 -1 -17 -22 0 -29 12 -17 27 14 15 26 17 34 3z m1376 -27 c-8 -15
-10 -15 -11 -2 0 17 10 32 18 25 2 -3 -1 -13 -7 -23z m232 12 c-3 -9 -8 -14
-10 -11 -3 3 -2 9 2 15 9 16 15 13 8 -4z m-276 -11 c-3 -4 4 -15 17 -25 25
-20 41 -25 32 -11 -2 4 0 14 5 22 8 12 9 9 7 -9 -4 -33 -19 -36 -51 -8 -23 20
-27 37 -9 37 3 0 2 -3 -1 -6z m143 -3 c0 -3 -11 -13 -23 -22 -18 -13 -24 -14
-35 -3 -7 7 -8 15 -3 19 5 3 12 1 16 -5 4 -6 11 -8 16 -4 5 3 7 9 5 13 -3 4 1
8 9 8 8 0 15 -3 15 -6z m70 -9 c0 -13 -12 -22 -22 -16 -10 6 -1 24 13 24 5 0
9 -4 9 -8z m-1680 -27 c0 -12 -19 -12 -23 0 -4 9 -1 12 9 8 7 -3 14 -7 14 -8z
m71 -8 c-13 -13 -26 -3 -16 12 3 6 11 8 17 5 6 -4 6 -10 -1 -17z m1559 -7 c0
-5 -2 -10 -4 -10 -3 0 -8 5 -11 10 -3 6 -1 10 4 10 6 0 11 -4 11 -10z m-1470
-20 c8 -15 8 -18 -3 -14 -8 3 -14 11 -14 19 0 20 4 19 17 -5z m1445 10 c3 -5
-1 -10 -10 -10 -9 0 -13 5 -10 10 3 6 8 10 10 10 2 0 7 -4 10 -10z m-339 -12
c4 -6 3 -8 -4 -4 -6 3 -13 2 -17 -3 -3 -5 -14 -9 -25 -8 -10 1 -16 5 -14 9 3
5 9 6 13 4 4 -3 13 -1 21 5 19 11 17 11 26 -3z m51 -4 c-3 -3 -12 -4 -19 -1
-8 3 -5 6 6 6 11 1 17 -2 13 -5z m40 -23 c-4 -18 16 -37 36 -33 4 1 7 -2 7 -8
0 -14 -19 -12 -36 4 -7 8 -22 13 -31 12 -10 -2 -12 -1 -5 1 8 3 11 11 8 18 -4
11 4 20 23 24 2 1 1 -8 -2 -18z m-787 -10 c0 -6 -4 -13 -10 -16 -5 -3 -10 1
-10 9 0 9 5 16 10 16 6 0 10 -4 10 -9z m140 -16 c-13 -16 -65 -21 -55 -6 3 6
15 8 26 6 11 -2 22 2 26 11 3 8 8 13 11 10 3 -3 -1 -12 -8 -21z m300 3 c0 -10
-5 -18 -11 -18 -5 0 -7 5 -4 10 3 6 1 10 -4 10 -6 0 -11 -9 -11 -21 0 -11 -4
-18 -10 -14 -5 3 -6 13 -3 22 5 12 3 14 -8 8 -12 -7 -12 -6 -1 7 18 22 52 19
52 -4z m500 8 c0 -2 -8 -10 -17 -17 -16 -13 -17 -12 -4 4 13 16 21 21 21 13z
m-210 -26 c0 -5 -2 -10 -4 -10 -3 0 -8 5 -11 10 -3 6 -1 10 4 10 6 0 11 -4 11
-10z m130 -5 c4 3 6 -5 2 -17 -5 -21 -6 -21 -13 -2 -4 10 -8 24 -8 29 1 6 3 4
6 -3 2 -6 8 -10 13 -7z m-965 -7 c4 -3 2 -9 -3 -12 -5 -3 -15 1 -21 8 -10 11
-9 14 3 12 9 -1 18 -5 21 -8z m785 2 c0 -5 -4 -10 -9 -10 -6 0 -13 5 -16 10
-3 6 1 10 9 10 9 0 16 -4 16 -10z m118 -10 c7 -11 11 -20 9 -20 -2 0 -12 9
-22 20 -10 11 -14 20 -9 20 5 0 15 -9 22 -20z m-671 -5 c8 -8 20 -12 26 -8 9
5 9 3 0 -8 -6 -8 -24 -15 -40 -17 -24 -1 -25 0 -10 9 14 8 16 14 6 25 -15 19
-2 18 18 -1z m626 0 c4 -8 3 -16 -1 -19 -4 -3 -9 4 -9 15 -2 23 3 25 10 4z
m-853 -24 c0 -5 7 -16 15 -24 13 -13 13 -16 -1 -21 -8 -3 -13 -2 -10 2 2 4 0
14 -5 22 -8 13 -10 13 -19 0 -8 -13 -10 -13 -10 1 0 9 3 19 7 22 9 10 23 8 23
-2z m94 -6 c-3 -8 -11 -13 -17 -12 -7 1 -11 -3 -10 -9 1 -6 -5 -11 -13 -11
-26 0 -10 32 21 40 11 2 21 5 22 6 1 0 0 -6 -3 -14z m553 9 c-3 -3 -12 -4 -19
-1 -8 3 -5 6 6 6 11 1 17 -2 13 -5z m83 1 c0 -2 -10 -9 -22 -15 -22 -11 -22
-10 -4 4 21 17 26 19 26 11z m85 -5 c3 -5 1 -10 -4 -10 -6 0 -11 5 -11 10 0 6
2 10 4 10 3 0 8 -4 11 -10z m-641 -15 c3 -8 1 -15 -4 -15 -6 0 -10 7 -10 15 0
8 2 15 4 15 2 0 6 -7 10 -15z m501 -16 c-4 -5 -12 -9 -18 -8 -9 0 -8 2 1 6 6
2 9 10 6 15 -4 7 -2 8 5 4 6 -4 9 -12 6 -17z m-787 -3 c-7 -8 -17 -12 -22 -9
-4 3 -2 9 5 14 22 13 31 11 17 -5z m365 -11 c-7 -21 -12 -19 -10 4 0 11 5 18
9 15 4 -3 5 -11 1 -19z m100 -3 c-4 -10 -8 -12 -11 -4 -2 7 -8 10 -13 6 -10
-6 -13 9 -3 19 12 11 33 -5 27 -21z m-265 -12 c-7 -11 -14 -17 -17 -15 -2 3 1
11 7 18 7 8 8 18 4 22 -4 5 -1 5 5 1 10 -5 10 -11 1 -26z m76 -9 c-6 -6 -34
20 -34 32 0 6 8 2 19 -9 10 -10 17 -21 15 -23z m-1169 11 c-3 -3 -11 0 -18 7
-9 10 -8 11 6 5 10 -3 15 -9 12 -12z m1562 -7 c0 -8 -6 -15 -13 -15 -7 0 -14
-5 -16 -12 -3 -8 -7 -6 -11 5 -4 10 -2 16 6 14 7 -1 11 4 10 11 -2 6 3 12 10
12 8 0 14 -7 14 -15z m-80 -29 c-9 -9 -21 -16 -29 -16 -7 0 -2 7 10 16 12 8
19 21 16 27 -5 9 -4 9 6 0 10 -9 10 -15 -3 -27z m-177 4 c-9 -6 -7 -11 6 -19
11 -6 14 -11 7 -11 -13 0 -43 27 -43 40 0 4 9 6 21 3 14 -4 17 -8 9 -13z
m-130 -10 c0 -5 -2 -10 -4 -10 -3 0 -8 5 -11 10 -3 6 -1 10 4 10 6 0 11 -4 11
-10z m180 0 c0 -5 -2 -10 -4 -10 -3 0 -8 5 -11 10 -3 6 -1 10 4 10 6 0 11 -4
11 -10z m77 -5 c2 -6 -6 -16 -18 -23 -12 -8 -18 -9 -15 -4 3 6 -1 12 -9 16 -9
3 -15 -1 -15 -10 0 -11 -5 -14 -16 -10 -13 5 -14 4 -6 -7 7 -8 9 -17 5 -20
-13 -14 -20 -6 -20 19 0 17 4 24 13 20 9 -4 14 2 14 15 0 17 5 20 32 17 17 -2
33 -8 35 -13z m83 -9 c0 -2 -9 -6 -20 -9 -11 -3 -18 -1 -14 4 5 9 34 13 34 5z
m-6 -32 c3 -8 2 -12 -4 -9 -6 3 -10 10 -10 16 0 14 7 11 14 -7z m-834 -44 c0
-5 -5 -10 -11 -10 -5 0 -7 5 -4 10 3 6 8 10 11 10 2 0 4 -4 4 -10z"/>
<path d="M1290 2535 c6 -15 6 -27 0 -30 -5 -3 -7 -12 -3 -20 6 -17 43 -21 43
-4 0 5 -4 8 -9 4 -5 -3 -13 -1 -16 5 -4 6 -3 10 2 9 25 -4 33 4 33 34 0 17 -4
28 -8 22 -10 -14 -32 -17 -32 -5 0 6 -4 10 -10 10 -6 0 -6 -9 0 -25z"/>
<path d="M1207 2524 c-8 -9 5 -44 14 -38 5 3 6 10 3 16 -4 7 -2 8 4 4 7 -4 12
-3 12 2 0 11 -26 23 -33 16z"/>
<path d="M950 2508 c0 -4 7 -8 15 -8 8 0 15 4 15 8 0 5 -7 9 -15 9 -8 0 -15
-4 -15 -9z"/>
<path d="M1265 2512 c-5 -4 -16 -14 -22 -23 -11 -13 -10 -15 7 -14 23 1 40 15
20 15 -9 0 -7 5 6 15 10 8 15 14 9 15 -5 0 -14 -4 -20 -8z"/>
<path d="M2180 2369 c0 -6 -6 -9 -13 -6 -8 3 -14 -1 -14 -9 0 -17 3 -17 28 -4
20 11 26 30 9 30 -5 0 -10 -5 -10 -11z"/>
<path d="M620 2326 c0 -2 7 -7 16 -10 8 -3 12 -2 9 4 -6 10 -25 14 -25 6z"/>
<path d="M1230 2245 c-8 -2 -61 -11 -118 -20 -247 -39 -510 -151 -645 -275
-32 -29 -54 -57 -50 -63 3 -5 1 -7 -5 -4 -6 4 -24 -15 -41 -43 -39 -64 -39
-73 0 -27 71 84 321 248 452 298 31 12 57 26 57 31 0 5 4 6 10 3 11 -7 90 15
90 25 0 4 8 6 18 6 24 -1 214 34 232 43 8 4 98 7 200 6 137 -1 205 -5 262 -18
87 -20 183 -49 231 -71 18 -8 63 -29 102 -46 38 -17 74 -32 80 -33 5 -1 17 -9
27 -17 16 -15 68 -45 208 -123 30 -17 57 -33 60 -37 19 -23 257 -143 270 -135
18 11 -9 48 -31 42 -11 -3 -16 -1 -13 5 3 5 0 8 -7 7 -18 -4 -111 43 -224 113
-282 174 -451 255 -635 305 -85 22 -118 25 -305 28 -115 2 -217 2 -225 0z"/>
<path d="M1275 2154 c-16 -3 -37 -8 -45 -11 -8 -3 -19 -5 -23 -4 -17 3 -186
-52 -182 -60 3 -4 -3 -5 -13 -2 -11 2 -26 -2 -34 -11 -9 -8 -18 -13 -21 -10
-8 8 -275 -125 -310 -155 -18 -15 -48 -39 -68 -53 -37 -28 -109 -99 -108 -108
0 -3 -17 -24 -38 -47 -28 -30 -53 -46 -87 -55 -55 -15 -76 -39 -78 -89 -2 -65
2 -86 22 -109 11 -13 20 -27 20 -32 0 -4 16 -16 35 -25 19 -9 36 -23 38 -32
11 -51 -44 -133 -98 -147 -24 -6 -33 -23 -19 -37 9 -9 72 19 113 50 l34 26 -6
-32 c-4 -18 -16 -46 -28 -62 -27 -38 -20 -46 15 -18 27 21 69 92 60 102 -3 2
2 7 10 10 11 4 21 -3 31 -23 30 -58 13 -130 -56 -240 -26 -41 -46 -77 -43 -79
2 -3 17 8 32 22 16 15 33 27 40 27 7 0 9 7 5 18 -3 9 -3 14 2 10 4 -4 24 19
45 51 44 68 70 84 70 43 0 -40 -26 -119 -50 -152 -17 -23 -18 -29 -5 -24 18 7
36 40 66 121 12 32 26 63 31 70 5 7 5 14 -2 18 -7 4 -7 12 0 26 9 15 15 17 30
9 23 -12 27 -67 9 -119 -12 -34 -4 -55 11 -31 5 8 12 33 16 54 8 47 24 76 41
76 16 0 17 -27 2 -69 -6 -18 -9 -35 -5 -38 3 -3 8 3 11 13 15 47 39 84 46 72
11 -17 1 -55 -28 -105 -15 -25 -20 -43 -13 -43 6 0 22 24 36 54 13 30 31 60
39 66 27 22 18 -33 -15 -95 -33 -62 -40 -94 -13 -55 9 14 23 31 29 37 7 7 20
35 29 63 9 27 20 52 25 55 4 3 16 -13 27 -36 16 -34 18 -52 12 -104 -5 -35
-18 -83 -29 -106 -12 -22 -17 -38 -11 -34 22 13 41 66 55 150 14 91 22 108 36
85 14 -22 4 -119 -18 -182 -16 -45 -17 -55 -6 -51 24 9 43 57 54 135 12 85 18
108 30 108 20 0 22 -99 4 -187 -2 -13 0 -23 4 -23 12 0 34 109 25 123 -3 6 -1
7 5 3 8 -5 12 1 12 16 0 14 6 32 13 42 13 17 14 16 27 -13 12 -30 10 -118 -5
-196 l-6 -30 15 27 c9 15 18 60 21 100 8 106 13 122 30 108 8 -7 15 -21 15
-31 0 -11 5 -19 10 -19 14 0 13 12 -6 66 -18 53 -15 61 18 43 12 -7 25 -13 28
-12 7 2 15 -118 15 -225 -1 -85 0 -90 13 -66 8 15 12 39 10 55 -3 15 -1 26 3
23 4 -2 10 15 14 38 10 67 35 148 45 148 12 0 29 -57 31 -105 1 -38 -21 -158
-37 -200 -7 -18 -7 -19 8 -4 25 25 40 93 47 213 6 113 18 139 42 94 14 -25 29
-179 17 -172 -5 3 -8 -19 -7 -48 l1 -53 14 34 c18 40 22 129 10 235 -9 86 -1
95 38 42 18 -23 21 -42 21 -119 0 -51 -3 -114 -7 -142 -4 -27 -4 -41 -1 -30 3
11 13 29 23 40 23 27 35 75 18 75 -9 0 -9 3 -2 8 8 5 7 31 -3 90 -8 46 -12 91
-9 99 10 26 42 -11 56 -65 6 -26 16 -55 21 -65 6 -11 6 -17 -1 -17 -6 0 -10
-28 -11 -62 0 -35 -4 -90 -8 -123 -5 -33 -7 -62 -5 -64 2 -2 11 13 19 33 10
23 18 79 20 143 5 108 10 143 24 143 12 0 30 -47 44 -119 9 -41 16 -58 20 -48
3 9 -5 54 -19 99 -14 46 -28 95 -31 110 -3 17 -10 25 -17 21 -6 -3 -4 2 5 11
14 15 20 16 37 5 27 -17 59 -75 68 -124 4 -22 15 -51 25 -64 11 -14 19 -40 19
-62 0 -22 5 -39 11 -39 18 0 7 159 -11 170 -9 6 -10 10 -3 10 8 0 5 16 -9 50
-11 27 -25 50 -29 50 -5 0 -9 7 -9 15 0 18 19 19 41 2 9 -7 33 -39 54 -72 24
-37 40 -54 43 -45 3 8 0 16 -6 18 -6 2 -9 9 -6 15 2 7 -5 22 -16 34 -11 12
-20 26 -20 31 0 5 -9 17 -20 27 -25 23 -25 41 -2 54 34 18 78 -20 103 -89 26
-72 36 -83 31 -32 -4 32 -3 35 11 24 8 -7 20 -26 27 -42 7 -16 17 -27 23 -23
5 3 8 2 5 -3 -4 -5 0 -22 7 -39 13 -29 13 -28 15 38 2 37 4 72 5 77 1 6 3 18
4 28 0 10 7 27 15 37 13 18 14 17 30 -13 9 -18 22 -68 28 -112 8 -57 14 -78
22 -70 15 15 12 111 -4 140 -8 14 -15 27 -15 30 -16 72 -16 102 0 120 14 15
22 17 37 9 37 -20 93 -77 113 -116 31 -62 36 -66 52 -43 13 18 10 30 -28 115
-38 89 -44 125 -19 125 6 0 25 -21 43 -46 17 -26 40 -56 49 -68 l17 -21 1 21
c0 11 -9 29 -19 41 -40 43 -64 114 -43 127 22 14 62 -53 89 -147 17 -61 30
-94 37 -87 6 6 3 25 -7 52 -9 24 -14 53 -11 65 5 19 9 21 26 12 22 -12 22 -14
2 58 -9 33 18 39 80 19 29 -9 68 -16 87 -15 27 1 19 4 -32 16 -37 8 -79 25
-95 38 -25 20 -27 25 -14 39 11 14 28 17 86 14 40 -2 70 -5 68 -7 -9 -9 102
-50 131 -50 l30 1 -31 7 c-43 11 -54 19 -47 38 5 13 2 15 -15 11 -21 -6 -79
28 -69 39 3 2 41 5 86 6 60 2 85 6 97 19 28 27 7 38 -72 38 -79 0 -107 9 -123
38 -7 14 -5 17 12 18 52 3 148 27 137 34 -8 5 -9 13 -3 25 5 9 12 16 14 15 7
-4 101 41 96 46 -2 3 -22 -1 -43 -8 -22 -7 -52 -12 -69 -10 -54 5 -79 5 -147
-3 -63 -7 -69 -6 -98 19 -17 14 -39 26 -48 26 -19 0 -175 75 -217 104 -16 12
-38 26 -47 31 -9 6 -59 39 -110 74 -167 116 -291 167 -463 192 -84 12 -329 20
-380 13z m415 -129 c7 -13 16 -23 19 -21 3 2 7 -7 7 -21 2 -32 13 -41 25 -23
8 13 11 13 23 -2 7 -10 17 -14 21 -10 5 4 5 1 1 -6 -4 -7 8 -37 28 -71 20 -32
36 -64 36 -70 0 -7 -31 -11 -94 -11 -52 0 -96 -4 -98 -9 -1 -4 -23 -3 -47 3
-43 11 -44 12 -63 75 -21 67 -18 120 6 140 10 8 24 0 59 -33 25 -25 54 -59 63
-78 13 -24 19 -28 22 -16 2 9 -6 34 -16 55 -24 46 -43 113 -36 124 8 13 30 0
44 -26z m-310 -1 c0 -8 -16 -47 -36 -87 -35 -68 -75 -170 -73 -185 4 -27 1
-30 -79 -47 -68 -16 -110 -30 -106 -36 2 -4 -5 -5 -15 -2 -32 8 -321 -97 -321
-117 0 -4 21 -11 47 -15 109 -16 323 -92 323 -114 0 -5 -10 -30 -22 -57 -12
-27 -31 -78 -44 -114 -20 -60 -24 -65 -50 -63 -36 3 -239 60 -284 80 -79 35
-126 60 -148 80 -7 7 -21 18 -31 25 -36 27 -101 140 -107 187 -4 35 63 151 88
151 19 0 25 -45 11 -98 -8 -30 -12 -56 -9 -59 12 -13 46 42 57 94 15 74 47
133 71 133 23 0 23 -7 -3 -90 -11 -38 -19 -77 -17 -87 3 -10 10 9 18 42 15 68
32 106 55 125 26 21 34 -1 19 -55 -7 -27 -13 -63 -14 -78 0 -15 -7 -39 -16
-53 -9 -13 -14 -27 -11 -30 12 -12 39 49 66 148 32 117 59 178 78 178 16 0 17
-38 3 -76 -21 -53 -1 -58 33 -8 36 52 49 57 58 22 5 -21 7 -19 18 15 19 57 37
87 59 103 24 16 53 9 45 -12 -3 -8 0 -14 6 -14 6 0 11 -8 11 -17 1 -10 14 10
30 45 38 82 81 87 49 5 -17 -42 -28 -93 -20 -93 4 0 13 22 20 49 14 55 75 131
92 114 7 -7 4 -21 -10 -44 -25 -40 -27 -69 -6 -69 18 0 19 -4 1 -38 -7 -15
-17 -43 -21 -62 l-7 -35 25 24 c16 14 30 42 36 72 15 67 54 142 88 167 29 21
43 20 43 -4z m472 -120 c5 -21 10 -47 11 -56 1 -10 7 -18 14 -18 7 0 10 -7 7
-15 -5 -12 -13 -6 -35 22 -31 41 -54 107 -43 124 10 17 34 -13 46 -57z m65
-22 c3 -20 10 -45 15 -54 12 -25 -14 -24 -36 1 -20 21 -32 90 -22 117 6 16 8
15 22 -4 8 -12 18 -39 21 -60z m58 8 c-4 -6 -2 -16 3 -23 6 -7 20 -43 32 -81
21 -63 24 -67 34 -47 14 24 9 31 96 -134 23 -44 49 -89 56 -100 13 -18 14 -17
14 13 0 39 17 42 26 5 3 -16 10 -43 16 -61 13 -43 5 -51 -84 -92 -40 -18 -84
-42 -97 -52 -13 -10 -37 -18 -53 -18 -16 0 -48 -11 -72 -25 -23 -13 -56 -26
-74 -27 -31 -3 -34 0 -51 47 -18 51 -96 184 -116 197 -5 4 -7 8 -3 8 4 0 -1
20 -12 45 l-19 44 67 34 c37 18 100 51 141 72 69 36 76 37 85 20 6 -9 19 -27
28 -39 14 -17 13 -8 -6 50 -33 100 -42 154 -25 165 18 11 22 11 14 -1z m-1045
-8 c0 -13 -12 -22 -22 -16 -10 6 -1 24 13 24 5 0 9 -4 9 -8z m1188 -119 c2
-33 -1 -53 -8 -53 -14 0 -28 38 -36 102 l-6 53 24 -24 c17 -19 24 -38 26 -78z
m-72 52 c3 -22 -23 -18 -29 4 -3 11 -2 22 1 26 8 7 25 -11 28 -30z m172 -188
c-2 -23 -7 -42 -13 -42 -11 0 -27 104 -18 118 12 19 34 -35 31 -76z m-1805
-11 c15 -12 16 -14 2 -20 -10 -4 -15 -19 -15 -52 0 -36 4 -47 19 -51 11 -3 23
-20 30 -44 24 -81 119 -152 303 -228 85 -36 126 -68 73 -59 -17 4 -41 9 -55
13 -14 4 -32 7 -40 7 -8 1 -17 4 -20 8 -3 4 -34 22 -70 40 -35 18 -81 43 -103
57 -21 13 -43 21 -49 17 -6 -4 -8 -3 -5 3 9 14 -106 131 -133 135 -16 2 -27
16 -41 50 l-18 46 27 35 c23 31 54 55 72 56 3 0 13 -6 23 -13z m1879 -64 c10
-29 17 -39 17 -25 1 12 -3 32 -8 46 -5 13 -6 29 -1 37 5 9 16 -1 34 -32 31
-54 33 -79 6 -96 -17 -10 -20 -10 -21 5 0 10 -5 3 -10 -14 -5 -18 -16 -33 -23
-33 -14 0 -19 14 -31 97 -4 24 -11 46 -16 49 -6 3 -5 11 2 20 16 20 30 6 51
-54z m216 -94 c-3 -7 -11 -13 -18 -13 -7 0 -15 6 -17 13 -3 7 4 12 17 12 13 0
20 -5 18 -12z m-1041 -97 c28 -1 75 -9 104 -16 29 -8 57 -11 63 -8 6 3 8 3 4
-1 -4 -5 14 -19 40 -33 26 -13 61 -38 77 -54 35 -34 28 -43 -41 -54 -24 -3
-46 -10 -49 -14 -2 -5 -16 -6 -30 -3 -14 2 -25 0 -25 -4 0 -5 -26 -10 -58 -11
-168 -6 -399 -22 -414 -28 -23 -9 -31 24 -15 64 32 75 153 161 227 161 18 0
29 4 25 10 -4 6 2 7 17 2 13 -5 46 -10 75 -11z m793 -111 c8 -15 8 -20 -2 -20
-22 0 -41 17 -34 29 11 17 24 13 36 -9z m-222 -62 c14 -14 16 -74 3 -83 -24
-14 -60 57 -41 80 15 18 22 19 38 3z m-248 -17 c0 -5 -6 -13 -13 -19 -10 -8
-13 -6 -14 9 -1 10 5 19 13 19 8 0 14 -4 14 -9z m194 -38 c3 -8 4 -19 0 -24
-7 -12 -54 36 -54 56 0 14 2 14 24 0 13 -9 27 -23 30 -32z m326 32 c0 -8 -7
-15 -15 -15 -8 0 -15 7 -15 15 0 8 7 15 15 15 8 0 15 -7 15 -15z"/>
<path d="M2581 2067 c-23 -25 -23 -25 -2 -32 30 -9 45 3 29 23 -8 10 -9 13 -1
9 6 -4 15 -2 19 4 4 7 3 9 -4 5 -5 -3 -12 -1 -14 5 -2 5 -14 -1 -27 -14z"/>
<path d="M283 1925 c0 -8 4 -12 9 -9 4 3 8 9 8 15 0 5 -4 9 -8 9 -5 0 -9 -7
-9 -15z"/>
<path d="M2925 1740 c3 -5 11 -10 16 -10 6 0 7 5 4 10 -3 6 -11 10 -16 10 -6
0 -7 -4 -4 -10z"/>
<path d="M189 1652 c-4 -32 -6 -37 -17 -34 -7 1 -12 -2 -12 -8 0 -5 7 -10 15
-10 15 0 32 46 21 57 -3 4 -7 1 -7 -5z"/>
<path d="M160 1580 c0 -5 5 -10 10 -10 6 0 10 5 10 10 0 6 -4 10 -10 10 -5 0
-10 -4 -10 -10z"/>
<path d="M2780 1221 c0 -6 4 -13 10 -16 6 -3 7 1 4 9 -7 18 -14 21 -14 7z"/>
<path d="M2815 1200 c3 -5 8 -10 11 -10 2 0 4 5 4 10 0 6 -5 10 -11 10 -5 0
-7 -4 -4 -10z"/>
<path d="M2725 1139 c-4 -6 -5 -12 -2 -15 2 -3 7 2 10 11 7 17 1 20 -8 4z"/>
<path d="M2696 1111 c-4 -7 -5 -15 -2 -18 9 -9 19 4 14 18 -4 11 -6 11 -12 0z"/>
<path d="M218 993 c12 -2 19 -9 16 -15 -4 -6 -1 -9 5 -7 23 8 12 24 -16 26
-21 1 -23 0 -5 -4z"/>
<path d="M1202 878 c1 -45 4 -65 9 -53 11 29 11 125 -1 125 -5 0 -9 -32 -8
-72z"/>
<path d="M2560 920 c-8 -5 -12 -12 -9 -15 4 -3 12 1 19 10 14 17 11 19 -10 5z"/>
<path d="M2445 900 c4 -6 11 -8 16 -5 14 9 11 15 -7 15 -8 0 -12 -5 -9 -10z"/>
<path d="M1026 810 c-3 -8 -12 -35 -21 -59 -13 -37 -13 -42 0 -31 17 14 38 75
32 93 -3 9 -6 8 -11 -3z"/>
<path d="M2408 804 c-7 -6 15 -54 25 -54 10 0 9 4 -6 34 -8 14 -16 23 -19 20z"/>
<path d="M577 723 c-8 -13 9 -37 21 -29 6 3 13 0 16 -6 3 -7 4 -2 3 12 -2 24
-30 40 -40 23z m33 -7 c0 -11 -19 -15 -25 -6 -3 5 1 10 9 10 9 0 16 -2 16 -4z"/>
<path d="M2060 661 c0 -5 -8 -7 -19 -4 -11 3 -21 -2 -24 -12 -5 -12 -3 -14 10
-6 12 6 20 5 28 -5 8 -11 10 -9 11 11 1 14 0 25 -2 25 -2 0 -4 -4 -4 -9z"/>
<path d="M747 640 c-3 -11 -2 -22 3 -25 4 -3 10 6 12 20 6 30 -7 34 -15 5z"/>
<path d="M781 644 c0 -11 3 -14 6 -6 3 7 2 16 -1 19 -3 4 -6 -2 -5 -13z"/>
<path d="M1899 621 c-1 -3 -1 -10 0 -15 1 -5 -5 -6 -14 -2 -9 3 -18 -1 -22
-10 -8 -20 6 -32 17 -14 7 12 12 12 22 2 16 -16 25 -15 25 3 0 8 -5 11 -11 8
-6 -3 -5 0 2 8 6 7 12 16 12 19 0 8 -30 9 -31 1z"/>
<path d="M2105 590 c-3 -5 -1 -10 4 -10 6 0 11 5 11 10 0 6 -2 10 -4 10 -3 0
-8 -4 -11 -10z"/>
<path d="M873 561 c1 -11 7 -23 14 -25 17 -7 16 4 -2 28 -13 18 -14 18 -12 -3z"/>
<path d="M1715 560 c3 -5 11 -10 16 -10 6 0 7 5 4 10 -3 6 -11 10 -16 10 -6 0
-7 -4 -4 -10z"/>
<path d="M1868 553 c7 -3 16 -2 19 1 4 3 -2 6 -13 5 -11 0 -14 -3 -6 -6z"/>
<path d="M1860 523 c0 -7 9 -13 20 -13 12 0 17 5 14 13 -6 18 -34 18 -34 0z"/>
<path d="M2069 532 c9 -7 10 -11 2 -15 -7 -4 -8 -5 0 -3 15 2 13 20 -3 24 -10
3 -10 2 1 -6z"/>
<path d="M950 516 c0 -6 13 -13 30 -14 20 -2 28 2 25 10 -7 17 -55 20 -55 4z"/>
<path d="M1016 515 c7 -17 22 -19 42 -6 10 6 8 10 -10 14 -34 10 -38 9 -32 -8z"/>
<path d="M1515 520 c-4 -6 -11 -7 -17 -4 -7 4 -8 2 -4 -5 6 -9 11 -9 21 -1 10
8 14 7 18 -2 4 -10 6 -10 6 1 1 11 4 11 16 1 17 -14 31 -8 20 9 -8 14 -52 14
-60 1z"/>
<path d="M1175 510 c-4 -6 6 -10 22 -10 22 0 25 2 13 10 -19 12 -27 12 -35 0z"/>
<path d="M1383 512 c-13 -2 -23 -8 -23 -13 0 -5 6 -8 13 -6 6 1 11 -5 9 -13
-2 -8 0 -11 5 -7 4 5 8 14 8 20 0 7 8 11 18 9 9 -2 17 -1 17 1 0 8 -25 13 -47
9z"/>
<path d="M1178 463 c7 -3 16 -2 19 1 4 3 -2 6 -13 5 -11 0 -14 -3 -6 -6z"/>
<path d="M1010 450 c12 -9 11 -10 -10 -8 -20 2 -24 -1 -22 -17 5 -28 9 -30 28
-11 9 10 23 15 30 12 8 -3 14 1 14 9 0 8 -4 15 -9 15 -5 0 -18 3 -28 6 -15 5
-16 4 -3 -6z"/>
<path d="M1540 449 c0 -5 5 -7 10 -4 6 3 10 8 10 11 0 2 -4 4 -10 4 -5 0 -10
-5 -10 -11z"/>
<path d="M1493 443 c4 -6 0 -16 -8 -23 -18 -15 -10 -31 12 -23 12 5 14 3 8 -8
-8 -12 -6 -12 8 0 17 13 14 36 -4 26 -5 -3 -6 0 -3 8 3 8 0 18 -7 23 -7 4 -10
3 -6 -3z"/>
<path d="M2525 2170 c3 -5 8 -10 11 -10 2 0 4 5 4 10 0 6 -5 10 -11 10 -5 0
-7 -4 -4 -10z"/>
</g>
</svg>
